<svg xmlns="http://www.w3.org/2000/svg" viewBox="0 0 200 200"><defs><style>.cls-1{fill:#bbc8fe;}.cls-2{fill:#6583fe;}.cls-3,.cls-5,.cls-6,.cls-7,.cls-8,.cls-9{fill:none;}.cls-3,.cls-4,.cls-5,.cls-6,.cls-7,.cls-8,.cls-9{stroke:#0d5cef;stroke-miterlimit:10;}.cls-4{fill:#fff;}.cls-5,.cls-6,.cls-7,.cls-8,.cls-9{stroke-linecap:round;}.cls-6{stroke-dasharray:9.41 19.6;}.cls-7{stroke-dasharray:6.58 13.71;}.cls-8{stroke-dasharray:6.58 13.7;}.cls-9{stroke-dasharray:7.56 15.76;}.cls-10{fill:#0d5cef;}</style></defs><g id="Academic_Courses" data-name="Academic Courses"><circle class="cls-1" cx="133.27" cy="143.65" r="16.18"/><polygon class="cls-2" points="100 86.93 100 96.78 64.94 82.64 64.94 72.23 100 86.93"/><polygon class="cls-2" points="100 43.79 56.4 65.29 100 86.78 100 86.93 40.24 65.29 100 43.66 100 43.79"/><polygon class="cls-3" points="100 43.66 40.24 65.29 100 86.93 159.76 65.29 100 43.66"/><path class="cls-3" d="M135.06,74.23V83a82.85,82.85,0,0,0-16.55,2.58A81.25,81.25,0,0,0,108,89.2a78.24,78.24,0,0,0-8,3.91,78,78,0,0,0-8-3.91,81.61,81.61,0,0,0-10.56-3.62A82.74,82.74,0,0,0,64.94,83V74.23L100,86.93Z"/><line class="cls-3" x1="75.41" y1="52.56" x2="75.41" y2="73.04"/><circle class="cls-4" cx="75.41" cy="71.5" r="2.94"/><path class="cls-5" d="M140.47,93.07v-6q2.09-.06,3.9,0v6"/><line class="cls-6" x1="144.37" y1="112.64" x2="144.37" y2="131.85"/><path class="cls-5" d="M144.37,141.65v6c-1.89.14-3.89.34-6,.59"/><path class="cls-7" d="M124.9,150.6c-.87.2-1.76.42-2.65.64-3.65.9-7.08,1.92-10.28,3"/><path class="cls-5" d="M105.53,156.57c-2,.77-3.8,1.55-5.53,2.32-1.73-.77-3.58-1.55-5.53-2.32"/><path class="cls-8" d="M81.47,152.22c-1.21-.34-2.45-.67-3.72-1-3.31-.83-6.4-1.49-9.36-2"/><path class="cls-5" d="M61.61,148.21c-2-.24-4-.42-6-.56v-6"/><line class="cls-6" x1="55.64" y1="122.05" x2="55.64" y2="102.84"/><path class="cls-5" d="M55.64,93V87c1.2,0,2.5,0,3.89,0v6"/><line class="cls-9" x1="59.53" y1="108.83" x2="59.53" y2="124.27"/><path class="cls-5" d="M59.53,132.15v6q2.82.22,6,.61"/><path class="cls-5" d="M94.46,146.1c2,.76,3.81,1.54,5.54,2.31,1.72-.77,3.57-1.55,5.54-2.31"/><path class="cls-5" d="M134.5,138.76c2.09-.26,4.09-.46,6-.61v-6"/><line class="cls-9" x1="140.47" y1="116.39" x2="140.47" y2="100.95"/><path class="cls-2" d="M65,88.51v44.66a127.17,127.17,0,0,1,16,2.92,129.47,129.47,0,0,1,19,6.32v6a121.82,121.82,0,0,0-20.3-7,123.27,123.27,0,0,0-20.17-3.28V82.86a84.74,84.74,0,0,1,22,2.72A80.66,80.66,0,0,1,92,89.2a77.21,77.21,0,0,1,8,3.91v6.31L97.3,97.9a73.51,73.51,0,0,0-7.4-3.64A74.49,74.49,0,0,0,65,88.51Z"/><path class="cls-3" d="M118.51,85.58A80.66,80.66,0,0,0,108,89.2a77.21,77.21,0,0,0-8,3.91,77.21,77.21,0,0,0-8-3.91,81.25,81.25,0,0,0-10.55-3.62,85.36,85.36,0,0,0-22-2.73v55.3A123.72,123.72,0,0,1,100,148.4a123.72,123.72,0,0,1,40.47-10.25V82.85A85.36,85.36,0,0,0,118.51,85.58Z"/><line class="cls-5" x1="100" y1="93.11" x2="100" y2="161.83"/><polygon class="cls-10" points="162.1 89.66 162.51 96.56 168.28 92.75 162.1 89.66"/><polygon class="cls-1" points="45.99 31.81 46.87 46.38 59.04 38.34 45.99 31.81"/><polygon class="cls-3" points="157.58 30.13 140.06 41.7 158.84 51.08 157.58 30.13"/><circle class="cls-1" cx="28.8" cy="100" r="4.57"/><circle class="cls-2" cx="76.07" cy="162.89" r="2.28"/><circle class="cls-3" cx="24.24" cy="155.58" r="9.6"/></g></svg>