<svg xmlns="http://www.w3.org/2000/svg" viewBox="0 0 200 200"><defs><style>.cls-1{fill:#bbc8fe;}.cls-2,.cls-4,.cls-6{fill:none;}.cls-2{stroke:#bbc8fe;}.cls-2,.cls-4,.cls-6,.cls-7{stroke-miterlimit:10;}.cls-3{fill:#6583fe;}.cls-4,.cls-6,.cls-7{stroke:#0d5cef;}.cls-4{stroke-linecap:round;}.cls-5{fill:#0d5cef;}.cls-7{fill:#fff;}</style></defs><g id="Brandimg"><rect class="cls-1" x="48.22" y="14.29" width="4.22" height="124.92"/><rect class="cls-1" x="53.01" y="146.12" width="4.22" height="66.27" transform="translate(-124.13 234.38) rotate(-90)"/><rect class="cls-1" x="134.99" y="35.08" width="11.78" height="11.78"/><rect class="cls-2" x="25.85" y="17.93" width="11.78" height="11.78"/><rect class="cls-1" x="119.35" y="76.75" width="50.25" height="107.65"/><polygon class="cls-3" points="68.05 40.97 68.05 73.39 56.94 73.39 56.76 40.97 68.05 40.97"/><polygon class="cls-3" points="57.04 93.22 68.05 93.22 68.05 98.01 57.07 98.01 57.04 93.22"/><polygon class="cls-3" points="57.26 133.81 68.05 133.81 68.05 159.03 57.4 159.03 57.26 133.81"/><polygon class="cls-4" points="140.88 40.97 140.88 159.03 57.4 159.03 57.4 133.81 92.75 133.81 92.75 98.01 57.4 98.01 57.4 93.22 72.54 93.22 72.54 73.39 57.4 73.39 57.4 40.97 140.88 40.97"/><rect class="cls-5" x="66.08" y="53.92" width="6.97" height="5.48"/><polygon class="cls-5" points="82.04 63.57 73.04 60.1 73.04 53.23 82.04 49.76 82.04 63.57"/><rect class="cls-5" x="67.87" y="58.56" width="1.52" height="4.79"/><line class="cls-6" x1="95.6" y1="52.35" x2="131.27" y2="52.35"/><line class="cls-6" x1="95.6" y1="56.66" x2="131.27" y2="56.66"/><line class="cls-6" x1="95.6" y1="60.98" x2="131.27" y2="60.98"/><polygon class="cls-3" points="89.86 99.94 89.86 130.92 30.28 130.92 30.28 133.81 92.75 133.81 92.75 98.01 89.86 99.94"/><polyline class="cls-6" points="30.28 98.01 61.51 120.33 92.75 98.01"/><polygon class="cls-3" points="72.54 73.39 72.54 93.22 30.28 93.22 30.28 89.46 68.78 89.46 68.78 73.39 72.54 73.39"/><rect class="cls-6" x="30.28" y="73.39" width="42.26" height="19.83"/><line class="cls-7" x1="33.67" y1="76.75" x2="49.89" y2="76.75"/><line class="cls-7" x1="33.67" y1="80.28" x2="49.89" y2="80.28"/><line class="cls-7" x1="33.67" y1="83.8" x2="49.89" y2="83.8"/><path class="cls-5" d="M66.77,88v-.94h-1a2.54,2.54,0,0,0-.16-.38l.73-.73-.67-.67-.73.73a2.54,2.54,0,0,0-.38-.16v-1h-.94v1a2.27,2.27,0,0,0-.39.16l-.73-.73-.66.67.73.73a1.8,1.8,0,0,0-.16.38h-1V88h1a1.68,1.68,0,0,0,.16.39l-.73.73.66.66.73-.73a1.68,1.68,0,0,0,.39.16v1h.94v-1a1.8,1.8,0,0,0,.38-.16l.73.73.67-.66-.73-.73a2.27,2.27,0,0,0,.16-.39Z"/><rect class="cls-5" x="101.4" y="119.53" width="28.05" height="28.05"/><rect class="cls-5" x="101.4" y="77.7" width="7.84" height="28.05"/><rect class="cls-5" x="111.51" y="90.28" width="7.84" height="15.47"/><rect class="cls-5" x="121.61" y="100.94" width="7.84" height="4.81"/><rect class="cls-6" x="30.28" y="98.01" width="62.47" height="35.8"/><rect class="cls-5" x="172.98" y="23.82" width="4.7" height="4.7"/><rect class="cls-6" x="11.48" y="140.69" width="18.34" height="18.34"/></g></svg>