<svg xmlns="http://www.w3.org/2000/svg" viewBox="0 0 200 200"><defs><style>.cls-1{fill:#bbc8fe;}.cls-2{fill:none;stroke:#bbc8fe;stroke-miterlimit:10;}.cls-3{fill:#0d5cef;}.cls-4{fill:#6583fe;}.cls-5{fill:#fff;}</style></defs><g id="Entrepreneur"><circle class="cls-1" cx="86.75" cy="137.06" r="9.62"/><circle class="cls-1" cx="109.6" cy="69.59" r="2.84"/><circle class="cls-2" cx="130.56" cy="46.11" r="15.55"/><circle class="cls-3" cx="34.6" cy="103.66" r="3.15"/><circle class="cls-3" cx="155.72" cy="141.47" r="1.02"/><polygon class="cls-4" points="86.75 56.75 74.45 44.02 74.27 56.75 86.75 56.75"/><polyline class="cls-1" points="63.27 109.2 63.27 109.32 63.27 115.63 60.49 113.94 60.78 108.88"/><path class="cls-4" d="M70.37,74.23a7.66,7.66,0,0,1-.5.82c-.73,1.76-4.14,3.53-4.14,3.53A16.11,16.11,0,0,0,54.92,93.94c.09,6.72,4.43,13.72,10.81,16h-.24c-1.06,0-2.12-1.11-3.16-1.35l-1.22-.27v.15l-2-.93a15.71,15.71,0,0,1-9.14-13.2l0-.61-.55-.24a4.39,4.39,0,0,1-2.5-5.07,3.42,3.42,0,0,1,1.9-2.32l.64-.28-.32-4.64a16.41,16.41,0,0,1,4.4-12.42,16.65,16.65,0,0,1,11.95-5.26l.72.37a11.6,11.6,0,0,1,1.9.93C73.14,67.77,71.37,72.38,70.37,74.23Z"/><path class="cls-4" d="M65.59,116.6l.14-.09v.7l-1.67,1.34-1,4.82-2,11.19-.89.58H45a.72.72,0,0,1-.69-.68V123.37a1.5,1.5,0,0,0,0-.26,8.65,8.65,0,0,1,4.78-7l6.53-2.4v-2.68a.55.55,0,0,1,.28-.45l.18-.06,1-.39v0l4.07-1.67v5.1Z"/><polygon class="cls-4" points="132.98 143.14 120.72 143.14 132.98 156.05 132.98 143.14"/><path class="cls-4" d="M150.27,103.81c-.26.28-.53.55-.81.82a12,12,0,0,0-3.63,9.47l.14,2.71v0l-7.34.36v-10c0-4.7,3.7-6.56,5.7-8,2.71-1.93,9.27-11.09,2.6-20-3.29-4.41-9.15-6.55-14.77-7.54-.91-.17-1.81-.3-2.69-.4a19.26,19.26,0,0,1,5.1-1c.41,0,.83,0,1.25,0a19.74,19.74,0,0,1,13.66,5.45A20,20,0,0,1,150.27,103.81Z"/><circle class="cls-5" cx="135.81" cy="100.48" r="3.11"/><path class="cls-1" d="M138.63,127.91v-10.7h4.84l-.4,3.25.4,2.1a7.33,7.33,0,0,1-1.1,3.57C141.39,127.29,138.63,127.91,138.63,127.91Z"/><path class="cls-3" d="M133.57,56.24a35.91,35.91,0,0,0-50-8.86c-.74.51-1.47,1.06-2.16,1.63l-.71.58L74.5,43.41a.47.47,0,0,0-.33-.14l-.18,0a.51.51,0,0,0-.29.52v13c0,.31.18.67.43.67H87.05a.6.6,0,0,0,.41-.2.61.61,0,0,0,.16-.45.6.6,0,0,0-.16-.38l-6-6,.87-.7a34.82,34.82,0,0,1,49,5.33c.48.6.95,1.23,1.39,1.86a.55.55,0,0,0,.46.23.49.49,0,0,0,.31-.1A.54.54,0,0,0,133.57,56.24Zm-47.78.06-11,0V45.11l5.93,6,0,0Z"/><path class="cls-3" d="M133.1,142.56H120.2a.64.64,0,0,0-.43.2.62.62,0,0,0-.16.45.65.65,0,0,0,.16.39l6,6-.87.69A34.8,34.8,0,0,1,76,145c-.47-.59-.94-1.21-1.39-1.86a.56.56,0,0,0-.77-.13.55.55,0,0,0-.13.77,35.93,35.93,0,0,0,50,8.86c.74-.52,1.47-1.07,2.17-1.64l.7-.57,6.15,6.15a.54.54,0,0,0,.78,0,.54.54,0,0,0,.16-.39V143.24A.67.67,0,0,0,133.1,142.56Zm-.55,12.3L127,149.29a1,1,0,0,1-.15-.21l-5.33-5.42h11Z"/><path class="cls-3" d="M82.05,116.15l-.16-.1-6.32-2.31V111.1a.62.62,0,0,0-.29-.5h-.06l-5.14-2.11v5.08l-4.35,3-.14.09-4.48-3v-5.1L57,110.14v0l-1,.39-.18.06a.55.55,0,0,0-.28.45v2.68l-6.53,2.4a8.65,8.65,0,0,0-4.78,7,1.5,1.5,0,0,1,0,.26v11.09a.72.72,0,0,0,.69.68H60.67l4.6,6.11a.58.58,0,0,0,.46.22.61.61,0,0,0,.36-.13l.08-.07,4.61-6.13H86.25c.29,0,.42-.36.42-.62V123.17a.79.79,0,0,1,0-.28A8.68,8.68,0,0,0,82.05,116.15Zm-9.72-2.72,1.35,1.43-3.56,4.75-3.53-2.35Zm-13.46,0,5.74,3.83-3.53,2.35-3.57-4.75ZM53.3,134H45.37V123.12a7.86,7.86,0,0,1,3.4-5.55l.56-.38.56.38a7.84,7.84,0,0,1,3.41,5.54Zm1.1,0V123.13A8.67,8.67,0,0,0,52,117.79l-1.1-1.11,5.23-1.89,4.43,5.9a.53.53,0,0,0,.44.22.49.49,0,0,0,.3-.1l.09,0,1.92-.78L60.65,134ZM65.73,140l-4.07-5.42,3-16,1-.65,1.27.84,2.93,15.8Zm11.06-16.75V134h-6l-2.6-14,1.78.86a.5.5,0,0,0,.26.06.6.6,0,0,0,.45-.23l4.42-5.91,5.26,1.9-1.1,1.11a8.7,8.7,0,0,0-2.46,5.31A.5.5,0,0,1,76.79,123.23ZM85.57,134H77.89V123.11a7.66,7.66,0,0,1,3.28-5.53l.55-.37.56.37a6.93,6.93,0,0,1,3.28,5.66Zm-1.3-45.68a3.37,3.37,0,0,0-1.9-2.3l-.63-.29.32-4.64A16.55,16.55,0,0,0,66.7,63.49c-.38,0-.76,0-1.14,0h-.15a16.65,16.65,0,0,0-11.95,5.26,16.41,16.41,0,0,0-4.4,12.42l.32,4.64-.64.28a3.42,3.42,0,0,0-1.9,2.32,4.39,4.39,0,0,0,2.5,5.07l.55.24,0,.61a15.71,15.71,0,0,0,9.14,13.2l2,.93v.85l1.22.27a14,14,0,0,0,3.16.35h.24a15,15,0,0,0,3.13-.36l1.22-.29v-.85l2-.91a15.71,15.71,0,0,0,9.12-13.2l0-.6.55-.24A4.41,4.41,0,0,0,84.27,88.36Zm-30-18.9A15.43,15.43,0,0,1,81,81.06l-.16,2.47-.1,2.64,0,.61-1,.66-.16-.66-.65-3.09-1.29-5.25a6.9,6.9,0,0,0-6-4.15l-1.19-.06h-.31a.56.56,0,0,0-.45.23,14.11,14.11,0,0,1-11.47,5.91,12.68,12.68,0,0,1-1.5-.08L54.16,80H54a1.18,1.18,0,0,0-1.16,1.08l-.38,4.77-.12,1.32-1.84-.69-.38-5.43A15.34,15.34,0,0,1,54.27,69.46ZM80.78,92.62l-.19,0a.57.57,0,0,0-.46.57,14.59,14.59,0,0,1-14.4,14.55h-.18A14.59,14.59,0,0,1,51,93.2a.56.56,0,0,0-.45-.54,3.3,3.3,0,0,1-2.64-4,2.27,2.27,0,0,1,.87-1.33l.65-.48.61.53a1.88,1.88,0,0,0,.39.26,9.33,9.33,0,0,0,2.43.75.51.51,0,0,0,.31-.09.61.61,0,0,0,.28-.45L54,81.1l2.56.28c.53.05,1.08.08,1.61.08A15.15,15.15,0,0,0,70,75.73l.32-.4,1.17,0a5.78,5.78,0,0,1,5,3.35l0,.09,2.35,9.7a.54.54,0,0,0,.53.42l.13,0a.5.5,0,0,0,.25-.13l1.27-1.19.77-.79.72.67a2.36,2.36,0,0,1,.67,1.15A3.31,3.31,0,0,1,80.78,92.62Z"/><path class="cls-3" d="M149.48,75.62a19.74,19.74,0,0,0-13.66-5.45c-.42,0-.84,0-1.25,0a19.26,19.26,0,0,0-5.1,1,19.91,19.91,0,0,0-7.28,33.39,12.25,12.25,0,0,1,3.62,10.56l-.21,1.64a.81.81,0,0,0,.14.64.92.92,0,0,0,.76.38h1.67v5.7a4.29,4.29,0,0,0,4.24,4.36h6.75a4.31,4.31,0,0,0,4.3-4.24v-5.82h1.64a1,1,0,0,0,.87-1v0l-.14-2.71a12,12,0,0,1,3.63-9.47c.28-.27.55-.54.81-.82A20,20,0,0,0,149.48,75.62Zm-7,48.55a3.3,3.3,0,0,1-3.35,2.65h-6.56a3.29,3.29,0,0,1-3.34-2.65L129,123h13.63Zm-13.18-2.26v-4.06h13.1v4.06Zm20.22-18.85c-.25.26-.51.52-.77.76a13,13,0,0,0-4,10.31l.14,2.62h-8.65V104.4l.71-.22a3.9,3.9,0,0,0-1.15-7.61h0a4,4,0,0,0-3.95,3.89,4,4,0,0,0,2.65,3.74l.66.24v12.31H126.7l.2-1.43a13.35,13.35,0,0,0-4-11.5,18.82,18.82,0,0,1,9.22-32.18,18.35,18.35,0,0,1,2.47-.34c.39,0,.78,0,1.16,0a18.86,18.86,0,0,1,17.64,25.46A18.6,18.6,0,0,1,149.48,103.06Zm-13.67.23a2.81,2.81,0,1,1,2.82-2.81A2.81,2.81,0,0,1,135.81,103.29Z"/><polygon class="cls-2" points="52.72 39.88 30.46 41.77 43.23 60.1 52.72 39.88"/><polygon class="cls-3" points="172.92 57.11 167.25 57.59 170.5 62.26 172.92 57.11"/></g></svg>