<svg xmlns="http://www.w3.org/2000/svg" viewBox="0 0 200 200"><defs><style>.cls-1{fill:#6583fe;}.cls-2{fill:#0d5cef;}.cls-3{fill:#bbc8fe;}.cls-4,.cls-5{fill:none;stroke-miterlimit:10;}.cls-4{stroke:#bbc8fe;}.cls-5{stroke:#0d5cef;}</style></defs><g id="Excek"><polyline class="cls-1" points="112.86 41 112.86 71.42 143.28 71.42 143.28 76.13 108.14 76.13 108.14 41"/><rect class="cls-2" x="44.84" y="130.11" width="2.78" height="2.78" transform="translate(-79.45 71.2) rotate(-45)"/><rect class="cls-3" x="37.14" y="166.6" width="13.19" height="13.19" transform="translate(-109.66 81.65) rotate(-45)"/><rect class="cls-4" x="21.22" y="83.63" width="13.19" height="13.19" transform="translate(-62.41 118.04) rotate(-90)"/><circle class="cls-3" cx="123.85" cy="140.63" r="37.13"/><circle class="cls-4" cx="59.73" cy="44.44" r="11.76"/><polygon class="cls-5" points="143.28 71.42 143.28 159 56.73 159 56.73 41 112.86 41 127.97 56.11 143.28 71.42"/><polyline class="cls-5" points="143.28 71.42 112.86 71.42 112.86 41"/><rect class="cls-5" x="67.62" y="80.18" width="63.02" height="69.91"/><line class="cls-5" x1="67.62" y1="87.66" x2="130.63" y2="87.66"/><line class="cls-5" x1="67.62" y1="96.82" x2="130.63" y2="96.82"/><line class="cls-5" x1="67.62" y1="105.98" x2="130.63" y2="105.98"/><line class="cls-5" x1="67.62" y1="115.14" x2="130.63" y2="115.14"/><line class="cls-5" x1="67.62" y1="124.3" x2="130.63" y2="124.3"/><line class="cls-5" x1="67.62" y1="133.46" x2="130.63" y2="133.46"/><line class="cls-5" x1="67.62" y1="142.62" x2="130.63" y2="142.62"/><line class="cls-5" x1="78.01" y1="80.18" x2="78.01" y2="150.09"/><line class="cls-5" x1="88.51" y1="80.18" x2="88.51" y2="150.09"/><line class="cls-5" x1="99" y1="80.18" x2="99" y2="150.09"/><line class="cls-5" x1="109.49" y1="80.18" x2="109.49" y2="150.09"/><line class="cls-5" x1="119.99" y1="80.18" x2="119.99" y2="150.09"/><path class="cls-5" d="M67.62,51.33H102"/><path class="cls-5" d="M67.62,55.6H92"/><path class="cls-5" d="M67.62,59.87H82"/><circle class="cls-3" cx="162.22" cy="111.69" r="3.44"/><circle class="cls-2" cx="31.26" cy="26.85" r="3.44"/><circle class="cls-5" cx="137.95" cy="24.65" r="9.89"/></g></svg>