<svg xmlns="http://www.w3.org/2000/svg" viewBox="0 0 200 200"><defs><style>.cls-1{fill:#bbc8fe;}.cls-2{fill:#6583fe;}.cls-3,.cls-5,.cls-6{fill:none;stroke-miterlimit:10;}.cls-3,.cls-5{stroke:#0d5cef;}.cls-3{stroke-width:3px;}.cls-4{fill:#0d5cef;}.cls-6{stroke:#bbc8fe;}</style></defs><g id="IELTS"><circle class="cls-1" cx="158.93" cy="39.39" r="10.76"/><polygon class="cls-2" points="147.9 40.42 147.9 147.85 40.38 147.85 40.38 159.58 159.63 159.58 159.63 40.42 147.9 40.42"/><rect class="cls-3" x="40.38" y="40.42" width="119.25" height="119.16"/><circle class="cls-1" cx="47.47" cy="110.5" r="26.67"/><circle class="cls-4" cx="171.82" cy="130.76" r="2.35"/><circle class="cls-5" cx="26.36" cy="28.23" r="5.56"/><path class="cls-2" d="M61.94,88h5.88v24.14H61.94Z"/><path class="cls-2" d="M85.15,92.69H76.24v4.89h7.87v4.53H76.24v5.3h8.91v4.71H70.36V88H85.15Z"/><path class="cls-2" d="M93.12,88v19.6h7.7v4.54H87.25V88Z"/><path class="cls-2" d="M100.62,88h18.67v4.71h-6.4v19.43H107V92.69h-6.39Z"/><path class="cls-2" d="M129.26,112.36c-5.19,0-9.25-2.58-9.42-7.46h6.26a2.76,2.76,0,0,0,3,2.75c1.72,0,2.82-.86,2.82-2.27,0-4.47-12.07-2.06-12-10.62,0-4.57,3.75-7.12,8.8-7.12,5.26,0,8.8,2.61,9,7.22h-6.36a2.61,2.61,0,0,0-2.78-2.51,2.15,2.15,0,0,0-2.48,2.2c0,4.2,11.93,2.3,11.93,10.38C138.06,109,134.9,112.36,129.26,112.36Z"/><path class="cls-1" d="M59.52,34.18l2.1,4.24a.94.94,0,0,0,.7.52l4.69.68a.94.94,0,0,1,.52,1.6l-3.39,3.31a1,1,0,0,0-.27.83l.8,4.67a.93.93,0,0,1-1.36,1l-4.2-2.2a1,1,0,0,0-.87,0L54.05,51a.94.94,0,0,1-1.37-1l.8-4.67a1,1,0,0,0-.27-.83l-3.39-3.31a.94.94,0,0,1,.52-1.6L55,38.94a1,1,0,0,0,.71-.52l2.09-4.24A.94.94,0,0,1,59.52,34.18Z"/><path class="cls-1" d="M176.5,162.55l.23,1.82a.39.39,0,0,0,.2.28l1.63.83a.37.37,0,0,1,0,.66l-1.65.78a.33.33,0,0,0-.2.27l-.3,1.8a.36.36,0,0,1-.62.19l-1.26-1.33a.35.35,0,0,0-.32-.11l-1.81.28a.36.36,0,0,1-.37-.53l.88-1.61a.34.34,0,0,0,0-.34l-.82-1.63a.36.36,0,0,1,.39-.52l1.8.34a.4.4,0,0,0,.33-.1l1.3-1.29A.36.36,0,0,1,176.5,162.55Z"/><path class="cls-6" d="M65.32,175l1.82.2a.35.35,0,0,0,.32-.12l1.2-1.38a.36.36,0,0,1,.63.17l.37,1.79a.33.33,0,0,0,.21.26l1.68.72a.36.36,0,0,1,0,.65l-1.59.9a.37.37,0,0,0-.19.29l-.16,1.82a.36.36,0,0,1-.6.24l-1.35-1.24a.39.39,0,0,0-.33-.09l-1.78.41a.36.36,0,0,1-.42-.5l.76-1.67a.37.37,0,0,0,0-.34L65,175.59A.37.37,0,0,1,65.32,175Z"/></g></svg>